DataType=double
version=3
OpenSimVersion=4.5-2023-11-26-efcdfd3eb
endheader
time	EMG01_right_gast_med	EMG02_right_glut_max	EMG03_left_gast_med	EMG04_left_glut_max	EMG05_right_glut_med	EMG06_right_bic_fem	EMG07_right_rect_fem	EMG08_right_vast_lat	EMG09_right_vast_med	EMG10_right_tens_fasc_lat	EMG11_left_glut_med	EMG12_left_bic_fem	EMG13_left_rect_fem	EMG14_left_vast_lat	EMG15_left_vast_med	EMG16_left_tens_fasc_lat
1.89	0.3203400122266956	0.07344668609230562	0.09653296678359921	0.06976537877556449	0.1010486922657466	0.05363858576321715	0.1302967346954877	0.02468300090920952	0.02098258352100314	0.2221787906422458	0.1323560104403056	0.08324089208368241	0.1849740962859936	0.1228005276482291	0.4499333791395739	0.1654361780727385
1.9	0.2978098913193861	0.08604718568883121	0.1035238084419031	0.07054860478553375	0.1056842698775378	0.0528655611345966	0.1299559592034333	0.02474905953685779	0.02243957627615703	0.2293933571236549	0.1357465338342481	0.08221382019503307	0.1921246980884294	0.1261093113153232	0.4697539307385076	0.1691427590508589
1.91	0.2749109172850726	0.09926090533450241	0.1104477073967862	0.07144257027169598	0.1100673521761156	0.05222778051644269	0.1291458616848824	0.02475065787229839	0.02388370365339605	0.2358582297178083	0.1388524277309399	0.0808826348290563	0.1986317090035078	0.1290253077234556	0.4875531705710829	0.1738137557713692
1.92	0.2518601171026383	0.1129775187819729	0.1172668362787557	0.07242507894431929	0.1141377421043721	0.05174392491622896	0.1278769472713	0.02468928548969261	0.0252939469708819	0.241498075537374	0.1416502495276288	0.07926402557657745	0.2044223207723113	0.1315151304164497	0.5031344221839017	0.1794016059739812
1.93	0.2288689503984645	0.1270786991293562	0.1239445910564364	0.07347305302747034	0.1178390842215872	0.05143063717620459	0.1261644541440452	0.02456761010232537	0.02665008754784803	0.2462517915198742	0.1441207289083051	0.07737820157091715	0.2094312643456563	0.1335495761697789	0.5163288819443098	0.1858431006500318
1.94	0.2061401526145837	0.1414391170512955	0.13044659050602	0.07456283815373682	0.1211198500971963	0.05130218293437168	0.1240280190849995	0.02438948734400145	0.02793297526378789	0.2500730219843986	0.1462491493478938	0.07524861638904401	0.213602180496849	0.1351041253235425	0.5269987585612558	0.1930600524889533
1.95	0.1838649190718464	0.1559276306972261	0.1367417064990157	0.07567051310513602	0.1239342693219291	0.05137019512777985	0.1214913453916575	0.02415997045016357	0.02912479627497625	0.252930257581056	0.1480256281411751	0.07290163517998707	0.2168888976270577	0.1361593955872367	0.5350396547342218	0.2009602392313807
1.96	0.1622204676256588	0.1704086661873238	0.1428030918448202	0.07677220082575642	0.1262431736415789	0.05164350256594472	0.1185818824742838	0.02388531767696057	0.03020933541576091	0.2548065229325326	0.1494452818842385	0.0703661555836928	0.2192565697353097	0.1367015374824528	0.5403820850422978	0.2094386140786935
1.97	0.1413680041463869	0.1847437814642354	0.1486091681278521	0.0778443774948155	0.1280147221883283	0.05212804167714125	0.1153305204810184	0.02357299474878851	0.03117222796934107	0.255698692265382	0.1505082656802535	0.06767319423327671	0.2206826243082108	0.1367225586839488	0.5429920900344325	0.2183787670979797
1.98	0.1214511027439754	0.1987933989280618	0.1541445336051831	0.07886417671526445	0.1292249799995273	0.0528268489867629	0.111771297688583	0.0232316691817077	0.03200119478174457	0.255616496757395	0.1512196778158585	0.06485545025220348	0.2211574701508753	0.1362205639627188	0.542870980235253	0.2276546141353526
1.99	0.1025945017124788	0.2124186838123158	0.1594007522111758	0.07980968599714124	0.1298583293880091	0.05374012995730099	0.1079411133878094	0.02287119289820128	0.03268625417747088	0.2545812993691761	0.151589326585397	0.06194685612261522	0.2206849197046649	0.1351998970094378	0.5400542994004596	0.23713228368909
2	0.08490330669029252	0.225483535985391	0.164376988702879	0.08066023235303174	0.129907702679373	0.05486539748975263	0.1038794348058867	0.02250256910311606	0.0332199037915488	0.2526247142990077	0.151631361313271	0.05898212469359202	0.2192822890691597	0.1336711700611659	0.5346101240380342	0.2466721678681481
2.01	0.06846258449616398	0.2378566534523635	0.1690804602968609	0.08139665281514016	0.1293746339258312	0.05619767085078485	0.0996279842393237	0.02213789907014443	0.03359726524690142	0.249787143989652	0.1513637756497235	0.05599629916866043	0.2169801511071225	0.1316511680255602	0.5266368241195361	0.2561311000324146
2.02	0.05333732445534282	0.249413617127914	0.1735266811286107	0.08200154449895386	0.1282691354344266	0.05772972332468106	0.09523039352465057	0.02179030445791017	0.03381618461262099	0.2461163002907486	0.150807798408147	0.05302431087896546	0.2138217333687409	0.1291626176908763	0.5162604068829821	0.2653646174873801
2.03	0.03957273877167574	0.2600389389497486	0.1777394834261777	0.08245948810918453	0.1266094113766502	0.05945236464184842	0.09073181724168904	0.0214738210643527	0.03387728180828969	0.2416657681431006	0.1499871948456538	0.05010054782261559	0.2098619740826119	0.1262338203265368	0.5036315548007356	0.2742292629911862
2.04	0.02719486962475118	0.2696280091002021	0.1817508084701535	0.08275723868501382	0.1244214245995781	0.06135474219107344	0.08617850116993866	0.02120326057464903	0.03378394276711405	0.2364936594334368	0.1489275076316552	0.04725843575380999	0.2051662727078361	0.12289815540082	0.488922453269484	0.2825848758178338
